#!OML:ASF H:\LiuWeirdWalks\Patient Classification 1\Patient 1\Session 1\male.ASF
:FULLY-SPECIFIED
:DEGREES
2902
root 1.60785 17.7735 -30.9093 182.312 -189.258 174.638
lowerback 5.88549 2.47191 -3.98927
upperback -2.28653 2.91493 -1.11455
thorax -5.82959 1.56346 0.754579
lowerneck -19.4035 -7.33494 4.98426
upperneck 21.1616 -11.0684 -2.65678
head 9.4316 -5.05329 -3.19685
rclavicle -5.91384e-015 1.74931e-014
rhumerus -32.3285 -11.5614 -82.3936
rradius 35.1159
rwrist -7.80601
rhand -17.2614 -2.28073
rfingers 7.12502
rthumb 8.98312 -32.0695
lclavicle -5.91384e-015 1.74931e-014
lhumerus -36.7325 2.39725 75.5472
lradius 28.2853
lwrist 8.37907
lhand -14.4498 2.89751
lfingers 7.12502
lthumb 11.6954 32.5511
rfemur -9.30944 -11.1497 15.1537
rtibia 68.4216
rfoot 6.75396 -7.35134
rtoes -1.76412
lfemur -10.651 -1.69296 -20.1776
ltibia 31.3046
lfoot -16.0384 13.0691
ltoes -7.85018
2903
root 1.60426 17.7719 -30.9097 182.275 -189.313 174.701
lowerback 5.90421 2.44259 -4.01551
upperback -2.28274 2.87288 -1.11181
thorax -5.8359 1.54375 0.776118
lowerneck -19.3491 -7.35552 4.99259
upperneck 21.1554 -11.0969 -2.65439
head 9.41796 -5.06648 -3.1976
rclavicle -3.15571e-014 -2.38542e-014
rhumerus -32.402 -11.5479 -82.4002
rradius 35.1984
rwrist -7.74445
rhand -17.1942 -2.15567
rfingers 7.12502
rthumb 9.04792 -31.9416
lclavicle -3.15571e-014 -2.38542e-014
lhumerus -36.713 2.32631 75.6017
lradius 28.2086
lwrist 8.28408
lhand -14.4774 2.92057
lfingers 7.12502
lthumb 11.6687 32.5756
rfemur -9.37089 -11.2429 15.1556
rtibia 68.5013
rfoot 6.73194 -7.33935
rtoes -1.83956
lfemur -10.6008 -1.68993 -20.2287
ltibia 31.2914
lfoot -16.0363 13.0138
ltoes -7.8726
2904
root 1.60099 17.77 -30.9094 182.239 -189.379 174.784
lowerback 5.92224 2.40026 -4.05995
upperback -2.26982 2.81226 -1.10878
thorax -5.83226 1.51532 0.810566
lowerneck -19.3738 -7.34993 5.00425
upperneck 21.2165 -11.094 -2.66518
head 9.44259 -5.06298 -3.20671
rclavicle -4.00054e-014 -9.54166e-015
rhumerus -32.4496 -11.5225 -82.4057
rradius 35.2393
rwrist -7.65288
rhand -17.1017 -2.04606
rfingers 7.12502
rthumb 9.13721 -31.8281
lclavicle -4.00054e-014 -9.54166e-015
lhumerus -36.6879 2.30369 75.6447
lradius 28.1545
lwrist 8.22257
lhand -14.4908 2.92421
lfingers 7.12502
lthumb 11.6559 32.58
rfemur -9.41643 -11.3424 15.126
rtibia 68.5777
rfoot 6.70963 -7.32617
rtoes -1.91572
lfemur -10.5439 -1.69827 -20.3051
ltibia 31.2742
lfoot -16.035 12.9634
ltoes -7.87147
2905
root 1.59775 17.7683 -30.9095 182.212 -189.437 174.856
lowerback 5.92888 2.35426 -4.09825
upperback -2.24905 2.74862 -1.09554
thorax -5.81376 1.48512 0.853322
lowerneck -19.455 -7.32238 5.03989
upperneck 21.2838 -11.0629 -2.7094
head 9.47715 -5.04778 -3.23048
rclavicle -3.13583e-014 1.43125e-014
rhumerus -32.4673 -11.4862 -82.4101
rradius 35.2498
rwrist -7.58099
rhand -17.0111 -1.96019
rfingers 7.12502
rthumb 9.22463 -31.7384
lclavicle -3.13583e-014 1.43125e-014
lhumerus -36.6404 2.31995 75.6843
lradius 28.1129
lwrist 8.19311
lhand -14.4904 2.88554
lfingers 7.12502
lthumb 11.6562 32.5413
rfemur -9.47682 -11.4278 15.1142
rtibia 68.6519
rfoot 6.71097 -7.32889
rtoes -1.90356
lfemur -10.5003 -1.71437 -20.3699
ltibia 31.2601
lfoot -16.0323 12.9259
ltoes -7.83909
2906
root 1.59494 17.7666 -30.9093 182.191 -189.485 174.939
lowerback 5.91784 2.31133 -4.152
upperback -2.21118 2.68929 -1.08158
thorax -5.76806 1.45704 0.906179
lowerneck -19.5807 -7.29212 5.05845
upperneck 21.3703 -11.0297 -2.73965
head 9.52875 -5.02997 -3.24994
rclavicle -2.18663e-014 -1.11319e-014
rhumerus -32.4536 -11.4582 -82.4095
rradius 35.237
rwrist -7.51639
rhand -16.9213 -1.89988
rfingers 7.12502
rthumb 9.31124 -31.6743
lclavicle -2.18663e-014 -1.11319e-014
lhumerus -36.5613 2.35485 75.7258
lradius 28.0943
lwrist 8.20909
lhand -14.4739 2.8693
lfingers 7.12502
lthumb 11.6722 32.5242
rfemur -9.5388 -11.5053 15.0844
rtibia 68.7227
rfoot 6.72845 -7.31525
rtoes -1.82784
lfemur -10.458 -1.74154 -20.4522
ltibia 31.2475
lfoot -16.0307 12.9108
ltoes -7.80966
2907
root 1.5922 17.7652 -30.9102 182.176 -189.503 174.992
lowerback 5.91168 2.27685 -4.17615
upperback -2.18144 2.64367 -1.05896
thorax -5.73322 1.43503 0.949508
lowerneck -19.7234 -7.24098 5.09664
upperneck 21.427 -10.9704 -2.78123
head 9.57229 -5.00084 -3.27252
rclavicle -1.31198e-014 -1.59028e-015
rhumerus -32.4439 -11.4204 -82.4112
rradius 35.2165
rwrist -7.52956
rhand -16.8653 -1.88237
rfingers 7.12502
rthumb 9.3653 -31.6543
lclavicle -1.31198e-014 -1.59028e-015
lhumerus -36.476 2.40369 75.7643
lradius 28.0863
lwrist 8.2519
lhand -14.4495 2.84408
lfingers 7.12502
lthumb 11.6956 32.4976
rfemur -9.62796 -11.5477 15.0958
rtibia 68.7903
rfoot 6.76079 -7.31644
rtoes -1.77455
lfemur -10.435 -1.77081 -20.505
ltibia 31.2441
lfoot -16.0253 12.9241
ltoes -7.77939
